<svg width="200" height="142" viewBox="0 0 200 142" fill="none" xmlns="http://www.w3.org/2000/svg">
<path opacity="0.06" fill-rule="evenodd" clip-rule="evenodd" d="M105.062 112.741V110.325L106.404 87.2401C106.583 83.84 107.836 78.9187 110.162 72.4764L115.531 59.3233C125.015 38.0277 140.942 20.6692 163.311 7.24764C169.575 2.41588 175.928 0 182.37 0C187.56 0.357913 192.392 2.23694 196.865 5.63704C198.297 8.14241 199.013 10.5583 199.013 12.8847C199.013 15.7479 197.85 18.5217 195.523 21.206C192.481 24.2483 188.007 27.38 182.102 30.6011C165.638 39.1909 155.974 49.2124 153.111 60.6654C171.722 61.9181 181.028 71.4921 181.028 89.3875V91.2665L179.686 114.352C178.075 132.784 166.354 142 144.521 142C142.911 141.821 141.658 141.732 140.763 141.732C116.962 141.732 105.062 132.068 105.062 112.741L105.062 112.741ZM0.642578 112.741V110.325L1.98475 87.2401C2.16369 83.84 3.6848 78.4713 6.54808 71.1342C15.6747 43.2174 33.1228 21.9219 58.8921 7.24764C65.1555 2.41588 71.4189 0 77.6823 0C82.693 0.357913 87.5248 2.23694 92.1776 5.63704C93.7882 8.32135 94.5935 10.8267 94.5935 13.1531C94.5935 16.0164 93.3408 18.7007 90.8354 21.206C87.9722 24.2483 83.5878 27.38 77.6823 30.6011C61.2185 39.1909 51.555 49.2124 48.6917 60.6654C67.3029 61.9181 76.6086 71.5816 76.6086 89.656V91.535L74.998 114.352C73.3874 131.71 60.5027 140.837 36.3439 141.732C12.543 140.121 0.642578 130.457 0.642578 112.741V112.741Z" fill="white"/>
</svg>
