<svg width="212" height="142" viewBox="0 0 212 142" fill="none" xmlns="http://www.w3.org/2000/svg">
<path opacity="0.06" fill-rule="evenodd" clip-rule="evenodd" d="M100.406 112.741V110.325L98.9719 87.2401C98.7806 83.84 97.4419 78.9187 94.9556 72.4764L89.2182 59.3233C79.0819 38.0277 62.0607 20.6692 38.1545 7.24764C31.4608 2.41588 24.6714 0 17.7864 0C12.2401 0.357913 7.07639 2.23694 2.29515 5.63704C0.765167 8.14241 0.000183105 10.5583 0.000183105 12.8847C0.000183105 15.7479 1.2433 18.5217 3.72957 21.206C6.98082 24.2483 11.762 27.38 18.0733 30.6011C35.6683 39.1909 45.9958 49.2124 49.0558 60.6654C29.1658 61.9181 19.2208 71.4921 19.2208 89.3875V91.2665L20.6552 114.352C22.3764 132.784 34.9033 142 58.2357 142C59.957 141.821 61.2957 141.732 62.252 141.732C87.6882 141.732 100.406 132.068 100.406 112.741L100.406 112.741ZM212 112.741V110.325L210.566 87.2401C210.374 83.84 208.749 78.4713 205.689 71.1342C195.935 43.2174 177.288 21.9219 149.748 7.24764C143.054 2.41588 136.361 0 129.667 0C124.312 0.357913 119.148 2.23694 114.176 5.63704C112.455 8.32135 111.594 10.8267 111.594 13.1531C111.594 16.0164 112.933 18.7007 115.61 21.206C118.67 24.2483 123.356 27.38 129.667 30.6011C147.262 39.1909 157.589 49.2124 160.649 60.6654C140.759 61.9181 130.814 71.5816 130.814 89.656V91.535L132.536 114.352C134.257 131.71 148.027 140.837 173.846 141.732C199.282 140.121 212 130.457 212 112.741V112.741Z" fill="white"/>
</svg>
