<svg width="94" height="24" viewBox="0 0 94 24" fill="none" xmlns="http://www.w3.org/2000/svg">
<path d="M83.3643 21.9763C83.4095 22.4401 82.6406 22.8827 81.0575 23.3043C79.4292 23.7681 78.0948 24 77.0545 24C76.557 24 76.3308 23.9157 76.3761 23.747L81.5324 13.8814C81.5776 13.7549 81.7133 13.6917 81.9395 13.6917C82.1204 13.6917 82.2109 13.7549 82.2109 13.8814L83.3643 21.9763ZM92.3878 14.2609C92.8401 14.303 93.0663 15.0198 93.0663 16.4111C93.0663 17.4651 92.9532 18.5191 92.7271 19.5731C92.4557 20.6693 92.2295 21.1331 92.0486 20.9644L83.4999 13.3123C83.4095 13.2701 83.4095 13.1436 83.4999 12.9328C83.5452 12.7642 83.613 12.7009 83.7035 12.7431L92.3878 14.2609ZM80.5826 12.3004C80.673 12.3004 80.7409 12.3847 80.7861 12.5534C80.8313 12.722 80.8087 12.8274 80.7182 12.8696L72.848 16.4111C72.441 16.5797 71.8756 16.2003 71.1519 15.2727C70.383 14.3452 69.7271 13.3544 69.1843 12.3004C68.6416 11.2885 68.5059 10.7826 68.7773 10.7826L80.5826 12.3004ZM87.2315 3.95258C87.2767 3.78393 87.5029 3.69961 87.91 3.69961C88.498 3.69961 89.3121 3.88934 90.3524 4.26878C91.3928 4.64823 92.2974 5.04876 93.0663 5.47036C93.8352 5.93413 94.1292 6.20818 93.9483 6.2925L83.5678 11.4783L83.4321 11.5415C83.2964 11.5415 83.1833 11.4783 83.0929 11.3518C82.9572 11.2675 82.9119 11.1831 82.9572 11.0988L87.2315 3.95258ZM81.8038 10.8459C81.849 10.9302 81.7812 11.0356 81.6002 11.1621C81.4193 11.3307 81.2836 11.3729 81.1932 11.2885L75.1548 5.28064C74.8834 5.02767 75.1096 4.41634 75.8333 3.44665C76.5118 2.51911 77.3033 1.65482 78.2079 0.853764C79.1125 0.0948703 79.5875 -0.158096 79.6327 0.0948703L81.8038 10.8459Z" fill="white"/>
<path d="M49.0435 21.9763C49.0887 22.4401 48.3198 22.8827 46.7367 23.3043C45.1084 23.7681 43.7741 24 42.7337 24C42.2362 24 42.0101 23.9157 42.0553 23.747L47.2116 13.8814C47.2568 13.7549 47.3925 13.6917 47.6187 13.6917C47.7996 13.6917 47.8901 13.7549 47.8901 13.8814L49.0435 21.9763ZM58.0671 14.2609C58.5194 14.303 58.7455 15.0198 58.7455 16.4111C58.7455 17.4651 58.6324 18.5191 58.4063 19.5731C58.1349 20.6693 57.9087 21.1331 57.7278 20.9644L49.1792 13.3123C49.0887 13.2701 49.0887 13.1436 49.1792 12.9328C49.2244 12.7642 49.2922 12.7009 49.3827 12.7431L58.0671 14.2609ZM46.2618 12.3004C46.3522 12.3004 46.4201 12.3847 46.4653 12.5534C46.5105 12.722 46.4879 12.8274 46.3975 12.8696L38.5273 16.4111C38.1202 16.5797 37.5548 16.2003 36.8311 15.2727C36.0622 14.3452 35.4063 13.3544 34.8636 12.3004C34.3208 11.2885 34.1851 10.7826 34.4565 10.7826L46.2618 12.3004ZM52.9107 3.95257C52.9559 3.78393 53.1821 3.69961 53.5892 3.69961C54.1772 3.69961 54.9913 3.88933 56.0317 4.26878C57.072 4.64822 57.9766 5.04875 58.7455 5.47036C59.5144 5.93413 59.8085 6.20817 59.6275 6.29249L49.247 11.4783L49.1113 11.5415C48.9756 11.5415 48.8625 11.4783 48.7721 11.3518C48.6364 11.2675 48.5912 11.1831 48.6364 11.0988L52.9107 3.95257ZM47.483 10.8459C47.5282 10.9302 47.4604 11.0356 47.2795 11.1621C47.0985 11.3307 46.9628 11.3729 46.8724 11.2885L40.834 5.28063C40.5627 5.02767 40.7888 4.41634 41.5125 3.44664C42.191 2.51911 42.9825 1.65481 43.8871 0.853761C44.7918 0.0948674 45.2667 -0.158098 45.3119 0.0948675L47.483 10.8459Z" fill="white"/>
<path d="M14.7227 21.9763C14.7679 22.44 13.999 22.8827 12.4159 23.3043C10.7876 23.7681 9.45328 24 8.41297 24C7.91543 24 7.68927 23.9157 7.7345 23.747L12.8908 13.8814C12.9361 13.7549 13.0718 13.6917 13.2979 13.6917C13.4788 13.6917 13.5693 13.7549 13.5693 13.8814L14.7227 21.9763ZM23.7463 14.2609C24.1986 14.303 24.4247 15.0198 24.4247 16.4111C24.4247 17.4651 24.3117 18.5191 24.0855 19.5731C23.8141 20.6693 23.588 21.1331 23.407 20.9644L14.8584 13.3123C14.7679 13.2701 14.7679 13.1436 14.8584 12.9328C14.9036 12.7642 14.9715 12.7009 15.0619 12.7431L23.7463 14.2609ZM11.941 12.3004C12.0314 12.3004 12.0993 12.3847 12.1445 12.5534C12.1898 12.722 12.1671 12.8274 12.0767 12.8696L4.20648 16.4111C3.7994 16.5797 3.23402 16.2003 2.51032 15.2727C1.74139 14.3452 1.08555 13.3544 0.542779 12.3004C8.8024e-06 11.2885 -0.135688 10.7826 0.135698 10.7826L11.941 12.3004ZM18.5899 3.95257C18.6352 3.78393 18.8613 3.69961 19.2684 3.69961C19.8564 3.69961 20.6706 3.88933 21.7109 4.26878C22.7512 4.64822 23.6558 5.04875 24.4247 5.47036C25.1937 5.93412 25.4877 6.20817 25.3067 6.29249L14.9262 11.4783L14.7905 11.5415C14.6548 11.5415 14.5418 11.4783 14.4513 11.3518C14.3156 11.2675 14.2704 11.1831 14.3156 11.0988L18.5899 3.95257ZM13.1622 10.8458C13.2075 10.9302 13.1396 11.0356 12.9587 11.1621C12.7778 11.3307 12.6421 11.3729 12.5516 11.2885L6.51327 5.28063C6.24188 5.02767 6.46803 4.41634 7.19173 3.44664C7.8702 2.5191 8.66174 1.65481 9.56635 0.853758C10.471 0.0948646 10.9459 -0.158101 10.9911 0.0948646L13.1622 10.8458Z" fill="white"/>
</svg>
