<svg width="112" height="49" viewBox="0 0 112 49" fill="none" xmlns="http://www.w3.org/2000/svg">
<path fill-rule="evenodd" clip-rule="evenodd" d="M104.546 25.8677C102.849 25.8677 101.427 25.5696 100.281 24.9733C99.134 24.377 98.1365 23.5515 97.288 22.4966L99.6959 20.2951C100.361 21.0978 101.095 21.7283 101.897 22.187C102.723 22.6227 103.675 22.8406 104.752 22.8406C105.853 22.8406 106.668 22.6342 107.195 22.2214C107.746 21.7857 108.021 21.1895 108.021 20.4327C108.021 19.8594 107.825 19.3778 107.436 18.988C107.068 18.5752 106.415 18.3115 105.475 18.1968L103.824 17.9904C101.989 17.7611 100.544 17.2336 99.4895 16.4081C98.4576 15.5596 97.9416 14.3098 97.9416 12.6587C97.9416 11.7872 98.1021 11.019 98.4232 10.354C98.7442 9.66598 99.1914 9.09271 99.7647 8.63403C100.361 8.15245 101.06 7.78557 101.863 7.53328C102.689 7.28099 103.594 7.1549 104.58 7.1549C106.186 7.1549 107.493 7.40719 108.502 7.91167C109.534 8.41614 110.451 9.11562 111.254 10.01L108.95 12.2115C108.491 11.6611 107.883 11.191 107.127 10.8011C106.392 10.3884 105.544 10.182 104.58 10.182C103.549 10.182 102.78 10.3884 102.276 10.8011C101.794 11.2139 101.553 11.7528 101.553 12.4179C101.553 13.1058 101.771 13.6218 102.207 13.9658C102.643 14.3098 103.342 14.5621 104.305 14.7226L105.956 14.929C107.928 15.227 109.362 15.8118 110.257 16.6833C111.174 17.5317 111.633 18.6784 111.633 20.1231C111.633 20.9946 111.461 21.7858 111.117 22.4966C110.795 23.1846 110.326 23.7809 109.706 24.2853C109.087 24.7898 108.341 25.1797 107.47 25.4549C106.598 25.7301 105.624 25.8677 104.546 25.8677L104.546 25.8677ZM91.2602 25.4549C89.9531 25.4549 88.967 25.1224 88.3019 24.4573C87.6369 23.7694 87.3044 22.8062 87.3044 21.5678V10.6291H84.5181V7.56768H86.0316C86.6508 7.56768 87.0751 7.43009 87.3044 7.1549C87.5567 6.87971 87.6828 6.43253 87.6828 5.81336V2.6831H91.0538V7.56768H94.8033V10.6291H91.0538V22.3934H94.5281V25.4549L91.2602 25.4549ZM74.2102 10.0787C73.568 10.0787 72.9718 10.1934 72.4215 10.4227C71.894 10.652 71.4353 10.9731 71.0455 11.3859C70.6785 11.7987 70.392 12.2918 70.1856 12.865C69.9792 13.4383 69.876 14.069 69.876 14.7569V14.9977H78.2004V14.6538C78.2004 13.2778 77.8449 12.1771 77.1341 11.3515C76.4231 10.503 75.4485 10.0788 74.2102 10.0788L74.2102 10.0787ZM74.2102 25.8677C72.9259 25.8677 71.7793 25.6498 70.7703 25.2141C69.7613 24.7784 68.9013 24.1592 68.1904 23.3566C67.4795 22.531 66.9291 21.5449 66.5393 20.3983C66.1723 19.2287 65.9889 17.9331 65.9889 16.5113C65.9889 15.0894 66.1723 13.8053 66.5393 12.6586C66.9291 11.4891 67.4795 10.503 68.1904 9.70036C68.9013 8.8748 69.7613 8.24412 70.7703 7.80844C71.7793 7.37276 72.9259 7.15487 74.2102 7.15487C75.5173 7.15487 76.6639 7.38416 77.65 7.84284C78.659 8.30152 79.496 8.94359 80.1611 9.76916C80.8261 10.5718 81.3192 11.512 81.6403 12.5898C81.9842 13.6677 82.1562 14.8257 82.1562 16.0641V17.4744H69.876V18.0592C69.876 19.4351 70.2773 20.5703 71.0799 21.4646C71.9055 22.3361 73.075 22.7718 74.5886 22.7718C75.6893 22.7718 76.6181 22.531 77.3748 22.0494C78.1316 21.5678 78.7737 20.9143 79.3011 20.0887L81.5027 22.2558C80.8376 23.3565 79.8744 24.2394 78.6132 24.9045C77.3518 25.5465 75.8842 25.8676 74.2102 25.8676V25.8677ZM61.2022 25.4549C59.918 25.4549 58.9548 25.1338 58.3127 24.4917C57.6936 23.8266 57.384 22.9094 57.384 21.7398V0H61.1334V22.3934H63.6101V25.4549H61.2022ZM51.5948 25.4549C50.3106 25.4549 49.3474 25.1338 48.7053 24.4917C48.0862 23.8266 47.7766 22.9094 47.7766 21.7398V0H51.526V22.3934H54.0027V25.4549H51.5948ZM34.4359 23.0126C35.6054 23.0126 36.5686 22.7603 37.3254 22.2558C38.0821 21.7283 38.4605 21.029 38.4605 20.1575V17.5776H35.2957C32.7044 17.5776 31.4088 18.3803 31.4088 19.9855V20.6047C31.4088 21.4073 31.6725 22.015 32.2 22.4278C32.7503 22.8177 33.4956 23.0126 34.4359 23.0126L34.4359 23.0126ZM42.0035 25.4549C41.0174 25.4549 40.2606 25.1797 39.7332 24.6293C39.2058 24.056 38.8847 23.3337 38.7701 22.4622H38.5981C38.2541 23.5858 37.6234 24.4344 36.7062 25.0077C35.7888 25.581 34.6767 25.8677 33.3695 25.8677C31.512 25.8677 30.0787 25.3861 29.0697 24.4229C28.0836 23.4598 27.5906 22.1641 27.5906 20.5359C27.5906 18.7472 28.2327 17.4056 29.5169 16.5113C30.824 15.6169 32.7274 15.1697 35.2271 15.1697H38.4605V13.6562C38.4605 12.5555 38.1623 11.707 37.5662 11.1107C36.9699 10.5144 36.0411 10.2164 34.7799 10.2164C33.7249 10.2164 32.865 10.4456 32.2 10.9043C31.5349 11.363 30.973 11.9478 30.5145 12.6586L28.2786 10.6291C28.8747 9.62007 29.7118 8.79451 30.7896 8.15244C31.8674 7.48737 33.2777 7.15489 35.0207 7.15489C37.3368 7.15489 39.1141 7.69376 40.3524 8.77162C41.5908 9.84948 42.2099 11.3974 42.2099 13.4154V22.3934H44.1019V25.4549H42.0035ZM0 7.56766H3.64624L5.46936 15.0665L7.08609 21.843H7.18929L9.04681 15.0665L11.2139 7.56766H14.585L16.7865 15.0665L18.6784 21.843H18.7816L20.3639 15.0665L22.2214 7.56766H25.6957L20.8799 25.4549H16.6489L14.3098 17.3024L12.865 12.2802H12.7962L11.3859 17.3024L9.0124 25.4549H4.88458L0 7.56766Z" fill="#40D7C8"/>
<path fill-rule="evenodd" clip-rule="evenodd" d="M107.079 47.1164C107.663 47.1164 108.144 46.9904 108.522 46.7385C108.9 46.4751 109.089 46.1258 109.089 45.6907V44.4023H107.509C106.215 44.4023 105.567 44.8031 105.567 45.6048V45.914C105.567 46.3148 105.699 46.6183 105.963 46.8244C106.238 47.0191 106.61 47.1164 107.079 47.1164V47.1164ZM110.859 48.3361C110.366 48.3361 109.988 48.1986 109.725 47.9238C109.461 47.6375 109.301 47.2767 109.244 46.8416H109.158C108.986 47.4027 108.671 47.8264 108.213 48.1127C107.755 48.399 107.2 48.5422 106.547 48.5422C105.619 48.5422 104.903 48.3017 104.399 47.8207C103.907 47.3397 103.661 46.6927 103.661 45.8796C103.661 44.9864 103.981 44.3164 104.623 43.8698C105.275 43.4232 106.226 43.1999 107.475 43.1999H109.089V42.444C109.089 41.8943 108.94 41.4706 108.643 41.1729C108.345 40.8751 107.881 40.7262 107.251 40.7262C106.724 40.7262 106.295 40.8408 105.963 41.0698C105.63 41.2988 105.35 41.5909 105.121 41.9459L104.004 40.9324C104.302 40.4285 104.72 40.0162 105.258 39.6956C105.797 39.3635 106.501 39.1974 107.371 39.1974C108.528 39.1974 109.416 39.4665 110.034 40.0048C110.652 40.543 110.962 41.316 110.962 42.3238V46.8072H111.906V48.3361L110.859 48.3361ZM99.0096 48.5422C98.3683 48.5422 97.7957 48.4334 97.2919 48.2158C96.788 47.9982 96.3642 47.689 96.0207 47.2882C95.6771 46.8759 95.4137 46.3835 95.2305 45.8109C95.0473 45.2268 94.9557 44.5798 94.9557 43.8698C94.9557 43.1598 95.0473 42.5185 95.2305 41.9459C95.4137 41.3618 95.6771 40.8694 96.0207 40.4686C96.3642 40.0563 96.788 39.7414 97.2919 39.5238C97.7957 39.3062 98.3683 39.1974 99.0096 39.1974C99.9029 39.1974 100.636 39.3978 101.208 39.7986C101.781 40.1995 102.199 40.732 102.462 41.3962L100.916 42.1176C100.79 41.7054 100.567 41.379 100.246 41.1385C99.9373 40.8866 99.525 40.7606 99.0096 40.7606C98.3225 40.7606 97.8014 40.9782 97.4464 41.4134C97.1029 41.8371 96.9311 42.3925 96.9311 43.0796V44.6772C96.9311 45.3643 97.1029 45.9254 97.4464 46.3606C97.8014 46.7843 98.3225 46.9962 99.0096 46.9962C99.5593 46.9962 99.9945 46.8645 100.315 46.6011C100.647 46.3262 100.911 45.9655 101.105 45.5189L102.531 46.2747C102.233 47.0076 101.787 47.5688 101.191 47.9581C100.596 48.3475 99.8685 48.5422 99.0096 48.5422ZM91.0107 39.4035H92.8831V48.336H91.0107V39.4035ZM91.9555 37.806C91.5662 37.806 91.2799 37.7144 91.0966 37.5311C90.9249 37.3479 90.8389 37.1131 90.8389 36.8268V36.5348C90.8389 36.2485 90.9248 36.0137 91.0966 35.8305C91.2799 35.6473 91.5662 35.5557 91.9555 35.5557C92.3449 35.5557 92.6255 35.6473 92.7973 35.8305C92.969 36.0137 93.0549 36.2485 93.0549 36.5348V36.8268C93.0549 37.1131 92.969 37.3479 92.7973 37.5311C92.6255 37.7144 92.3449 37.806 91.9555 37.806ZM84.4347 48.3361V39.4035H86.3071V41.1213H86.393C86.519 40.6632 86.7824 40.2624 87.1832 39.9189C87.584 39.5753 88.1394 39.4035 88.8495 39.4035H89.3476V41.2072H88.609C87.8646 41.2072 87.292 41.3275 86.8912 41.568C86.5018 41.8084 86.3071 42.1635 86.3071 42.633V48.3361L84.4347 48.3361ZM79.0608 40.9324H77.7037V39.4035H79.0608V37.9262C79.0608 37.2048 79.2497 36.6436 79.6276 36.2428C80.0055 35.8305 80.5724 35.6244 81.3282 35.6244H82.8055V37.1532H80.9331V39.4035H82.8055V40.9324H80.9331V48.3361H79.0608L79.0608 40.9324ZM71.9349 47.1164C72.519 47.1164 73 46.9904 73.3779 46.7385C73.7558 46.4751 73.9447 46.1258 73.9447 45.6907V44.4023H72.3644C71.0703 44.4023 70.4233 44.8031 70.4233 45.6048V45.914C70.4233 46.3148 70.555 46.6183 70.8184 46.8244C71.0932 47.0191 71.4654 47.1164 71.9349 47.1164V47.1164ZM75.7141 48.3361C75.2216 48.3361 74.8437 48.1986 74.5803 47.9238C74.3169 47.6375 74.1566 47.2767 74.0993 46.8416H74.0135C73.8417 47.4027 73.5268 47.8264 73.0687 48.1127C72.6106 48.399 72.0552 48.5422 71.4024 48.5422C70.4748 48.5422 69.7591 48.3017 69.2552 47.8207C68.7628 47.3397 68.5165 46.6927 68.5165 45.8796C68.5165 44.9864 68.8372 44.3164 69.4785 43.8698C70.1312 43.4232 71.0818 43.1999 72.33 43.1999H73.9447V42.444C73.9447 41.8943 73.7959 41.4706 73.4981 41.1729C73.2004 40.8751 72.7366 40.7262 72.1067 40.7262C71.5799 40.7262 71.1505 40.8408 70.8183 41.0698C70.4862 41.2988 70.2057 41.5909 69.9766 41.9459L68.8601 40.9324C69.1578 40.4285 69.5758 40.0162 70.1141 39.6956C70.6523 39.3635 71.3566 39.1974 72.2269 39.1974C73.3836 39.1974 74.2711 39.4665 74.8895 40.0048C75.5079 40.543 75.8171 41.316 75.8171 42.3238V46.8072H76.7619V48.3361L75.7141 48.3361ZM65.254 48.5422C64.8303 48.5422 64.5153 48.4334 64.3092 48.2158C64.1031 47.9868 64 47.7062 64 47.3741V47.1164C64 46.7843 64.1031 46.5095 64.3092 46.2919C64.5153 46.0628 64.8303 45.9483 65.254 45.9483C65.6777 45.9483 65.9926 46.0628 66.1988 46.2919C66.4049 46.5095 66.508 46.7843 66.508 47.1164V47.3741C66.508 47.7062 66.4049 47.9868 66.1988 48.2158C65.9926 48.4334 65.6777 48.5422 65.254 48.5422Z" fill="#F2F2F2"/>
</svg>
